<svg id="Layer_1" data-name="Layer 1" xmlns="http://www.w3.org/2000/svg" viewBox="0 0 512 512"><title>cloud-sun</title><path d="M0,256C0,114.61,114.61,0,256,0S512,114.63,512,256,397.38,512,256,512,0,397.39,0,256Z" fill="#00a93c"/><path d="M293,279.1a64.17,64.17,0,0,0-127.4.08,49.91,49.91,0,0,0-17-3c-27.68,0-50.12,23.77-50.12,51.45s22.44,51.45,50.12,51.45H287.83c28.12,0,50.93-22.22,50.93-50.12C338.76,302.8,318.71,281.67,293,279.1Z" fill="#fff"/><rect x="295.38" y="132.93" width="14.77" height="39.38" fill="#fff"/><rect x="381.53" y="243.7" width="32" height="14.77" fill="#fff"/><polygon points="358.6 309.95 386.95 338.29 396.41 328.84 368.06 300.49 358.6 309.95" fill="#fff"/><polygon points="259.36 191.84 231.02 163.49 221.56 172.94 249.92 201.29 259.36 191.84" fill="#fff"/><rect x="357.46" y="175.7" width="40.09" height="13.37" transform="translate(-18.33 320.56) rotate(-45.03)" fill="#fff"/><path d="M308.86,203.29A48.47,48.47,0,0,0,270.59,222a76.15,76.15,0,0,1,33.78,46.1c12.77,3.85,24.19,12.31,32.63,23.36a48.56,48.56,0,0,0-28.14-88.16Z" fill="#fff"/></svg>