<?xml version="1.0"?>
<svg xmlns="http://www.w3.org/2000/svg" xmlns:xlink="http://www.w3.org/1999/xlink" xmlns:svgjs="http://svgjs.com/svgjs" version="1.1" width="512" height="512" x="0" y="0" viewBox="0 0 512 512" style="enable-background:new 0 0 512 512" xml:space="preserve" class=""><g><g xmlns="http://www.w3.org/2000/svg"><path d="m224 326v-262c0-35.3-28.7-64-64-64s-64 28.7-64 64v262c-49 38.3-53.9 110.8-9.6 155.3 19.5 19.6 45.6 30.7 73.6 30.7 57.3 0 104-46.3 104-104 0-32-14.9-62.3-40-82zm-2.2 144.7c-16.9 16.7-39.3 25.6-63.1 25.3-47.3-.7-86.2-39.7-86.7-87.1-.3-28.6 13.4-55.7 36.7-72.4 2.1-1.5 3.3-3.9 3.3-6.5v-266c0-26.5 21.5-48 48-48s48 21.5 48 48v266c0 2.6 1.2 5 3.3 6.5 43.9 31.6 49.6 95.6 10.5 134.2z" fill="#5f2fff" data-original="#000000" style="" class=""/><path d="m447.8 72c-4.4.1-108.7 3.8-163.8 58.9-26.8 26.8-23.2 72.6.3 101.5l-17.9 17.9c-3.1 3.1-3.1 8.2 0 11.3s8.2 3.1 11.3 0l17.9-17.9c29.1 23.6 74.8 27 101.5.3 55.1-55 58.8-159.3 58.9-163.8.1-4.6-3.7-8.3-8.2-8.2zm-62 160.7c-20.7 20.7-56.5 16.7-78.8-.4l40.3-40.3h28.7c4.4 0 8-3.6 8-8s-3.6-8-8-8h-12.7l18.3-18.3c3.1-3.1 3.1-8.2 0-11.3s-8.2-3.1-11.3 0l-38.3 38.3 3.9-23.4c.7-4.4-2.2-8.5-6.6-9.2s-8.5 2.2-9.2 6.6l-7.6 45.5-16.9 16.8c-17.6-22.8-20.7-58.5-.4-78.8 41.8-41.8 118.3-51.5 144.2-53.7-2.1 25.9-11.8 102.4-53.6 144.2z" fill="#5f2fff" data-original="#000000" style="" class=""/><path d="m184 348.7v-124.7c0-13.2-10.8-24-24-24s-24 10.8-24 24v124.7c-43 17.3-53.5 72.7-21 104.8 11.7 11.5 27.6 18.5 45 18.5 34.9 0 64-28.3 64-64 0-26-16.2-49.6-40-59.3zm9.1 94c-29.9 28.5-78.7 8.1-81-31.9-1.3-22.4 12.8-42.5 34.2-48.9 3.4-1 5.7-4.1 5.7-7.7v-130.2c0-4.4 3.6-8 8-8s8 3.6 8 8v130.3c0 3.5 2.3 6.7 5.7 7.7 34.9 10.4 46.3 55.1 19.4 80.7z" fill="#5f2fff" data-original="#000000" style="" class=""/></g></g></svg>
